<svg width="54" height="40" viewBox="0 0 54 40" fill="none" xmlns="http://www.w3.org/2000/svg">
<path d="M53.0534 16.0764C52.9308 15.7053 52.5872 15.455 52.2 15.4545H48.6C48.103 15.4545 47.7 15.8616 47.7 16.3636V20.9091H45.9V13.6364C45.9 13.1343 45.497 12.7273 45 12.7273H37.8V8.18182C37.8 7.67978 37.397 7.27273 36.9 7.27273H30.6V5.45455H42.3C42.797 5.45455 43.2 5.0475 43.2 4.54545V0.909091C43.2 0.407049 42.797 0 42.3 0H13.5C13.003 0 12.6 0.407049 12.6 0.909091V4.54545C12.6 5.0475 13.003 5.45455 13.5 5.45455H25.2V7.27273H18.9C18.403 7.27273 18 7.67978 18 8.18182V13.1499L13.2302 16.3636H8.1C7.60298 16.3636 7.2 16.7707 7.2 17.2727V20H5.4V12.7273C5.4 12.2252 4.99702 11.8182 4.5 11.8182H0.9C0.402978 11.8182 0 12.2252 0 12.7273V35.4545C0 35.9566 0.402978 36.3636 0.9 36.3636H4.5C4.99702 36.3636 5.4 35.9566 5.4 35.4545V29.0909H7.2V31.8182C7.2 32.3202 7.60298 32.7273 8.1 32.7273H13.2302L18.4034 36.2109C18.5506 36.3099 18.7233 36.3628 18.9 36.3636H20.7V39.0909C20.7 39.593 21.103 40 21.6 40H34.2C34.697 40 35.1 39.593 35.1 39.0909V36.3636H45C45.497 36.3636 45.9 35.9566 45.9 35.4545V28.1818H47.7V32.7273C47.7 33.2293 48.103 33.6364 48.6 33.6364H52.2C52.5872 33.6359 52.9308 33.3856 53.0534 33.0145L53.9534 30.2872C53.9842 30.1949 53.9996 30.0977 54 30V19.0909C53.9996 18.9933 53.9842 18.896 53.9534 18.8037L53.0534 16.0764ZM14.4 1.81818H41.4V3.63636H14.4V1.81818ZM27 5.45455H28.8V7.27273H27V5.45455ZM3.6 34.5455H1.8V13.6364H3.6V34.5455ZM5.4 27.2727V21.8182H7.2V27.2727H5.4ZM13.9997 31.0618C13.8516 30.9624 13.6775 30.9095 13.5 30.9091H9V18.1818H12.6V23.6364C12.6 24.1384 13.003 24.5455 13.5 24.5455C13.997 24.5455 14.4 24.1384 14.4 23.6364V17.7592L19.3997 14.3954C19.6506 14.2263 19.8009 13.9413 19.8 13.6364V9.09091H36V12.7273H27C26.503 12.7273 26.1 13.1343 26.1 13.6364C26.1 14.1384 26.503 14.5455 27 14.5455H40.5V34.5455H19.1698L13.9997 31.0618ZM33.3 38.1818H22.5V36.3636H33.3V38.1818ZM44.1 34.5455H42.3V14.5455H44.1V34.5455ZM45.9 26.3636V22.7273H47.7V26.3636H45.9ZM52.2 29.8526L51.5509 31.8182H49.5V17.2727H51.5509L52.2 19.2383V29.8526Z" fill="#C1C1C1"/>
<path d="M22.5 14.5455H23.4C23.897 14.5455 24.3 14.1384 24.3 13.6364C24.3 13.1343 23.897 12.7273 23.4 12.7273H22.5C22.003 12.7273 21.6 13.1343 21.6 13.6364C21.6 14.1384 22.003 14.5455 22.5 14.5455Z" fill="#C1C1C1"/>
<path d="M13.5 26.3636C13.003 26.3636 12.6 26.7707 12.6 27.2727V28.1818C12.6 28.6839 13.003 29.0909 13.5 29.0909C13.997 29.0909 14.4 28.6839 14.4 28.1818V27.2727C14.4 26.7707 13.997 26.3636 13.5 26.3636Z" fill="#C1C1C1"/>
<path d="M17.1 20H37.8C38.297 20 38.7 19.593 38.7 19.0909C38.7 18.5889 38.297 18.1818 37.8 18.1818H17.1C16.603 18.1818 16.2 18.5889 16.2 19.0909C16.2 19.593 16.603 20 17.1 20Z" fill="#C1C1C1"/>
<path d="M17.1 23.6364H37.8C38.297 23.6364 38.7 23.2293 38.7 22.7273C38.7 22.2252 38.297 21.8182 37.8 21.8182H17.1C16.603 21.8182 16.2 22.2252 16.2 22.7273C16.2 23.2293 16.603 23.6364 17.1 23.6364Z" fill="#C1C1C1"/>
<path d="M17.1 27.2727H37.8C38.297 27.2727 38.7 26.8657 38.7 26.3636C38.7 25.8616 38.297 25.4545 37.8 25.4545H17.1C16.603 25.4545 16.2 25.8616 16.2 26.3636C16.2 26.8657 16.603 27.2727 17.1 27.2727Z" fill="#C1C1C1"/>
<path d="M38.7 30C38.7 29.498 38.297 29.0909 37.8 29.0909H17.1C16.603 29.0909 16.2 29.498 16.2 30C16.2 30.502 16.603 30.9091 17.1 30.9091H37.8C38.297 30.9091 38.7 30.502 38.7 30Z" fill="#C1C1C1"/>
</svg>
