<svg width="31" height="41" viewBox="0 0 31 41" fill="none" xmlns="http://www.w3.org/2000/svg">
<path d="M29.1049 2.34178C28.5182 1.89377 27.8356 1.59224 27.1125 1.46165C26.3893 1.33105 25.646 1.37507 24.9428 1.59012L12.032 5.46667H10.7826V0.683333C10.7826 0.502102 10.7116 0.328294 10.5852 0.200144C10.4588 0.0719938 10.2874 0 10.1087 0H2.02174C1.843 0 1.67159 0.0719938 1.54521 0.200144C1.41883 0.328294 1.34782 0.502102 1.34782 0.683333V5.5924C0.954995 5.73322 0.614669 5.99368 0.373406 6.33812C0.132143 6.68257 0.00172721 7.09419 0 7.51667V38.95C0 39.4937 0.213003 40.0151 0.592153 40.3996C0.971302 40.784 1.48554 41 2.02174 41H28.9782C29.5144 41 30.0287 40.784 30.4078 40.3996C30.787 40.0151 31 39.4937 31 38.95V6.1746C31.0032 5.4297 30.8333 4.69451 30.5041 4.0286C30.1748 3.3627 29.6955 2.78481 29.1049 2.34178ZM9.43477 1.36667V2.73333H7.41303V4.1H9.43477V5.46667H2.69565V4.1H4.71738V2.73333H2.69565V1.36667H9.43477ZM29.6521 38.95C29.6521 39.1312 29.5811 39.305 29.4547 39.4332C29.3284 39.5613 29.157 39.6333 28.9782 39.6333H2.02174C1.843 39.6333 1.67159 39.5613 1.54521 39.4332C1.41883 39.305 1.34782 39.1312 1.34782 38.95V7.51667C1.34782 7.33544 1.41883 7.16163 1.54521 7.03348C1.67159 6.90533 1.843 6.83333 2.02174 6.83333H12.1304C12.1952 6.83322 12.2596 6.82379 12.3218 6.80532L25.3283 2.8987C25.8308 2.74823 26.3611 2.71868 26.8768 2.81238C27.3926 2.90608 27.8797 3.12046 28.2995 3.43848C28.7192 3.7565 29.06 4.16939 29.2948 4.64437C29.5297 5.11934 29.652 5.64329 29.6521 6.1746V38.95Z" fill="#C1C1C1"/>
<path d="M26.2826 4.1C25.6087 4.1 17.4207 6.68847 12.6022 8.23143C12.4486 8.28039 12.3173 8.3835 12.2322 8.52211C12.1471 8.66071 12.1137 8.82564 12.1382 8.98703C12.1626 9.14842 12.2432 9.29561 12.3654 9.40193C12.4876 9.50826 12.6434 9.5667 12.8044 9.56667H27.6305C27.8092 9.56667 27.9806 9.49467 28.107 9.36652C28.2334 9.23837 28.3044 9.06456 28.3044 8.88333V6.15C28.3031 5.60669 28.0897 5.086 27.7108 4.70183C27.332 4.31765 26.8185 4.10126 26.2826 4.1ZM26.9565 8.2H17.2118C21.3974 6.88117 25.7893 5.52885 26.2826 5.46667C26.461 5.46774 26.6318 5.54008 26.758 5.668C26.8841 5.79592 26.9555 5.9691 26.9565 6.15V8.2Z" fill="#C1C1C1"/>
<path d="M5.3913 2.73333H6.73912V4.1H5.3913V2.73333Z" fill="#C1C1C1"/>
<path d="M27.6304 10.9333H3.36956C3.19083 10.9333 3.01942 11.0053 2.89303 11.1335C2.76665 11.2616 2.69565 11.4354 2.69565 11.6167V37.5833C2.69565 37.7646 2.76665 37.9384 2.89303 38.0665C3.01942 38.1947 3.19083 38.2667 3.36956 38.2667H27.6304C27.8091 38.2667 27.9805 38.1947 28.1069 38.0665C28.2333 37.9384 28.3043 37.7646 28.3043 37.5833V11.6167C28.3043 11.4354 28.2333 11.2616 28.1069 11.1335C27.9805 11.0053 27.8091 10.9333 27.6304 10.9333ZM26.9565 36.9H4.04347V12.3H26.9565V36.9Z" fill="#C1C1C1"/>
<path d="M15.3759 35.5333H15.6239C16.6151 35.5333 17.5912 35.287 18.4667 34.8159C19.3423 34.3448 20.0907 33.6633 20.6463 32.831C21.202 31.9988 21.548 31.0411 21.6542 30.0418C21.7603 29.0425 21.6233 28.0321 21.2551 27.099L16.126 14.0958C16.076 13.9688 15.9897 13.8599 15.8781 13.7831C15.7665 13.7064 15.6347 13.6654 15.4999 13.6654C15.365 13.6654 15.2333 13.7064 15.1217 13.7831C15.0101 13.8599 14.9237 13.9688 14.8738 14.0958L9.74468 27.099C9.37651 28.0321 9.23949 29.0425 9.34561 30.0418C9.45174 31.0411 9.79777 31.9988 10.3534 32.831C10.9091 33.6633 11.6575 34.3448 12.533 34.8159C13.4086 35.287 14.3847 35.5333 15.3759 35.5333ZM10.9955 27.6067L15.4999 16.1902L20.0036 27.6067C20.29 28.3325 20.3966 29.1184 20.314 29.8957C20.2314 30.6729 19.9622 31.4178 19.53 32.0651C19.0977 32.7125 18.5156 33.2425 17.8345 33.6089C17.1534 33.9752 16.3942 34.1668 15.6232 34.1667H15.3752C14.6042 34.1668 13.845 33.9752 13.1639 33.6089C12.4829 33.2425 11.9007 32.7125 11.4685 32.0651C11.0362 31.4178 10.767 30.6729 10.6845 29.8957C10.6019 29.1184 10.7084 28.3325 10.9948 27.6067H10.9955Z" fill="#C1C1C1"/>
<path d="M6.73912 15.0333H8.76086V13.6667H6.06521C5.88648 13.6667 5.71506 13.7387 5.58868 13.8668C5.4623 13.995 5.3913 14.1688 5.3913 14.35V17.0833H6.73912V15.0333Z" fill="#C1C1C1"/>
<path d="M6.06521 35.5333H8.76086V34.1667H6.73912V32.1167H5.3913V34.85C5.3913 35.0312 5.4623 35.205 5.58868 35.3332C5.71506 35.4613 5.88648 35.5333 6.06521 35.5333Z" fill="#C1C1C1"/>
<path d="M24.2608 17.0833H25.6087V14.35C25.6087 14.1688 25.5377 13.995 25.4113 13.8668C25.2849 13.7387 25.1135 13.6667 24.9347 13.6667H22.2391V15.0333H24.2608V17.0833Z" fill="#C1C1C1"/>
<path d="M25.6087 34.85V32.1167H24.2608V34.1667H22.2391V35.5333H24.9347C25.1135 35.5333 25.2849 35.4613 25.4113 35.3332C25.5377 35.205 25.6087 35.0312 25.6087 34.85Z" fill="#C1C1C1"/>
</svg>
