<svg width="41" height="41" viewBox="0 0 41 41" fill="none" xmlns="http://www.w3.org/2000/svg">
<path d="M23.304 21.616L20.604 14.62C20.524 14.412 20.44 14.172 20.352 13.9C20.264 13.62 20.18 13.324 20.1 13.012C19.932 13.66 19.76 14.2 19.584 14.632L16.884 21.616H23.304ZM28.152 28H26.352C26.144 28 25.976 27.948 25.848 27.844C25.72 27.74 25.624 27.608 25.56 27.448L23.952 23.296H16.236L14.628 27.448C14.58 27.592 14.488 27.72 14.352 27.832C14.216 27.944 14.044 28 13.836 28H12.048L18.924 10.804H21.276L28.152 28Z" fill="#C1C1C1"/>
<circle cx="20.5" cy="20.5" r="19.75" stroke="#C1C1C1" stroke-width="1.5"/>
</svg>
