<svg width="40" height="34" viewBox="0 0 40 34" fill="none" xmlns="http://www.w3.org/2000/svg">
<path d="M24.1383 5.77761C25.9878 6.93723 27.2847 8.89954 27.5208 11.1773C28.2751 11.5298 29.1122 11.7324 29.9998 11.7324C33.24 11.7324 35.8662 9.1062 35.8662 5.86647C35.8662 2.62623 33.24 0 29.9998 0C26.7905 0.000998378 24.1872 2.58031 24.1383 5.77761ZM20.295 17.7891C23.5353 17.7891 26.1615 15.1624 26.1615 11.9226C26.1615 8.68289 23.5348 6.05666 20.295 6.05666C17.0553 6.05666 14.4276 8.68339 14.4276 11.9231C14.4276 15.1629 17.0553 17.7891 20.295 17.7891ZM22.7835 18.1889H17.8056C13.6638 18.1889 10.2943 21.559 10.2943 25.7007V31.7883L10.3097 31.8837L10.7291 32.015C14.6816 33.25 18.1156 33.6618 20.942 33.6618C26.4625 33.6618 29.6623 32.0879 29.8595 31.9875L30.2513 31.7893H30.2933V25.7007C30.2948 21.559 26.9252 18.1889 22.7835 18.1889ZM32.4892 12.1328H27.5497C27.4963 14.1091 26.6527 15.8887 25.3184 17.1686C28.9999 18.2633 31.6935 21.6773 31.6935 25.7097V27.5857C36.5706 27.407 39.381 26.0247 39.5662 25.9319L39.9581 25.7332H40V19.6436C40 15.5023 36.6305 12.1328 32.4892 12.1328ZM10.0012 11.7334C11.1489 11.7334 12.2166 11.3985 13.1212 10.8279C13.4087 8.95245 14.4141 7.31362 15.8502 6.19743C15.8562 6.08761 15.8667 5.97879 15.8667 5.86797C15.8667 2.62773 13.24 0.00149746 10.0012 0.00149746C6.76051 0.00149746 4.13478 2.62773 4.13478 5.86797C4.13478 9.1067 6.76051 11.7334 10.0012 11.7334ZM15.2697 17.1686C13.9418 15.8952 13.1012 14.125 13.0398 12.1607C12.8566 12.1473 12.6754 12.1328 12.4887 12.1328H7.51129C3.36952 12.1328 0 15.5023 0 19.6436V25.7322L0.0154749 25.826L0.434793 25.9583C3.60564 26.9482 6.43554 27.4045 8.89355 27.5482V25.7097C8.89455 21.6773 11.5872 18.2643 15.2697 17.1686Z" fill="#C1C1C1"/>
</svg>
